<svg xmlns="http://www.w3.org/2000/svg" width="3840" height="3840"><path d="M1701,1881L1901,2157L2188,1993Z" fill="#40b4c4" stroke="#40b4c4" stroke-width="1.51"/><path d="M2188,1993L2224,1511L1701,1881Z" fill="#46b5c3" stroke="#46b5c3" stroke-width="1.51"/><path d="M2224,1511L1667,1269L1701,1881Z" fill="#56bcc2" stroke="#56bcc2" stroke-width="1.51"/><path d="M1901,2157L2559,2387L2188,1993Z" fill="#37a8c3" stroke="#37a8c3" stroke-width="1.51"/><path d="M2188,1993L3082,1786L2224,1511Z" fill="#40aac2" stroke="#40aac2" stroke-width="1.51"/><path d="M2224,1511L2331,1087L1667,1269Z" fill="#5dbbc0" stroke="#5dbbc0" stroke-width="1.51"/><path d="M2915,1166L2331,1087L2224,1511Z" fill="#59b2bf" stroke="#59b2bf" stroke-width="1.51"/><path d="M1701,1881L804,2061L1901,2157Z" fill="#56b9c1" stroke="#56b9c1" stroke-width="1.51"/><path d="M1667,1269L1061,1599L1701,1881Z" fill="#65c1c0" stroke="#65c1c0" stroke-width="1.51"/><path d="M2559,2387L3082,1786L2188,1993Z" fill="#31a2c2" stroke="#31a2c2" stroke-width="1.51"/><path d="M1061,1599L804,2061L1701,1881Z" fill="#66c2bf" stroke="#66c2bf" stroke-width="1.51"/><path d="M1901,2157L2359,3143L2559,2387Z" fill="#2e9ec2" stroke="#2e9ec2" stroke-width="1.51"/><path d="M804,2061L1613,3027L1901,2157Z" fill="#52b1c0" stroke="#52b1c0" stroke-width="1.51"/><path d="M3082,1786L2915,1166L2224,1511Z" fill="#4ca8bf" stroke="#4ca8bf" stroke-width="1.51"/><path d="M2559,2387L3158,2490L3082,1786Z" fill="#2e93be" stroke="#2e93be" stroke-width="1.51"/><path d="M1613,3027L2359,3143L1901,2157Z" fill="#339fc1" stroke="#339fc1" stroke-width="1.51"/><path d="M2898,2942L3158,2490L2559,2387Z" fill="#228dbd" stroke="#228dbd" stroke-width="1.51"/><path d="M1613,3027L1867,3297L2359,3143Z" fill="#3593bb" stroke="#3593bb" stroke-width="1.51"/><path d="M804,2061L1296,3112L1613,3027Z" fill="#57abbe" stroke="#57abbe" stroke-width="1.51"/><path d="M1296,3112L1867,3297L1613,3027Z" fill="#4898b9" stroke="#4898b9" stroke-width="1.51"/><path d="M2359,3143L2898,2942L2559,2387Z" fill="#228ebe" stroke="#228ebe" stroke-width="1.51"/><path d="M1667,1269L820,1045L1061,1599Z" fill="#79cabc" stroke="#79cabc" stroke-width="1.51"/><path d="M1061,1599L166,1878L804,2061Z" fill="#82cbbd" stroke="#82cbbd" stroke-width="1.51"/><path d="M2132,310L1348,627L1667,1269Z" fill="#84ccbd" stroke="#84ccbd" stroke-width="1.51"/><path d="M2132,310L1667,1269L2331,1087Z" fill="#73c3be" stroke="#73c3be" stroke-width="1.51"/><path d="M1348,627L820,1045L1667,1269Z" fill="#84cebc" stroke="#84cebc" stroke-width="1.51"/><path d="M1867,3297L1972,3388L2359,3143Z" fill="#348cb9" stroke="#348cb9" stroke-width="1.51"/><path d="M3266,3459L3178,2996L2898,2942Z" fill="#2373b2" stroke="#2373b2" stroke-width="1.51"/><path d="M1978,3956L1972,3388L1867,3297Z" fill="#3886b5" stroke="#3886b5" stroke-width="1.51"/><path d="M3082,1786L3471,1632L2915,1166Z" fill="#4b99b9" stroke="#4b99b9" stroke-width="1.51"/><path d="M3158,2490L3471,1632L3082,1786Z" fill="#358fba" stroke="#358fba" stroke-width="1.51"/><path d="M2961,625L2132,310L2331,1087Z" fill="#7abcbd" stroke="#7abcbd" stroke-width="1.51"/><path d="M2961,625L2331,1087L2915,1166Z" fill="#67b0bd" stroke="#67b0bd" stroke-width="1.51"/><path d="M3671,1102L2961,625L2915,1166Z" fill="#66a0b6" stroke="#66a0b6" stroke-width="1.51"/><path d="M2870,3615L2898,2942L2359,3143Z" fill="#227eb7" stroke="#227eb7" stroke-width="1.51"/><path d="M2898,2942L3178,2996L3158,2490Z" fill="#2280b8" stroke="#2280b8" stroke-width="1.51"/><path d="M3158,2490L4062,2156L3471,1632Z" fill="#3582b4" stroke="#3582b4" stroke-width="1.51"/><path d="M1296,3112L1978,3956L1867,3297Z" fill="#438cb5" stroke="#438cb5" stroke-width="1.51"/><path d="M804,2061L853,3218L1296,3112Z" fill="#65aebc" stroke="#65aebc" stroke-width="1.51"/><path d="M804,2061L290,2570L853,3218Z" fill="#7ab9bc" stroke="#7ab9bc" stroke-width="1.51"/><path d="M166,1878L242,2177L804,2061Z" fill="#8dccbc" stroke="#8dccbc" stroke-width="1.51"/><path d="M820,1045L166,1878L1061,1599Z" fill="#8dd0bb" stroke="#8dd0bb" stroke-width="1.51"/><path d="M1348,627L925,480L820,1045Z" fill="#9bd7b9" stroke="#9bd7b9" stroke-width="1.51"/><path d="M988,-404L925,480L1348,627Z" fill="#acddb7" stroke="#acddb7" stroke-width="1.51"/><path d="M28,1943L166,1878L-320,1534Z" fill="#9fd5bb" stroke="#9fd5bb" stroke-width="1.51"/><path d="M242,2177L290,2570L804,2061Z" fill="#89c5bc" stroke="#89c5bc" stroke-width="1.51"/><path d="M57,2817L290,2570L242,2177Z" fill="#8ec2bb" stroke="#8ec2bb" stroke-width="1.51"/><path d="M3471,1632L3671,1102L2915,1166Z" fill="#5595b5" stroke="#5595b5" stroke-width="1.51"/><path d="M4243,1505L3671,1102L3471,1632Z" fill="#5387af" stroke="#5387af" stroke-width="1.51"/><path d="M206,724L166,1878L820,1045Z" fill="#a3dab8" stroke="#a3dab8" stroke-width="1.51"/><path d="M166,1878L28,1943L242,2177Z" fill="#96d0bc" stroke="#96d0bc" stroke-width="1.51"/><path d="M1978,3956L2870,3615L1972,3388Z" fill="#327bb3" stroke="#327bb3" stroke-width="1.51"/><path d="M1972,3388L2870,3615L2359,3143Z" fill="#2c81b6" stroke="#2c81b6" stroke-width="1.51"/><path d="M2870,3615L3266,3459L2898,2942Z" fill="#2470b1" stroke="#2470b1" stroke-width="1.51"/><path d="M4287,2645L4062,2156L3158,2490Z" fill="#3072b0" stroke="#3072b0" stroke-width="1.51"/><path d="M1905,4179L1978,3956L978,4322Z" fill="#4c7aac" stroke="#4c7aac" stroke-width="1.51"/><path d="M978,4322L1978,3956L1296,3112Z" fill="#5287af" stroke="#5287af" stroke-width="1.51"/><path d="M290,2570L517,3419L853,3218Z" fill="#7dabb6" stroke="#7dabb6" stroke-width="1.51"/><path d="M57,2817L517,3419L290,2570Z" fill="#89b4b8" stroke="#89b4b8" stroke-width="1.51"/><path d="M28,1943L57,2817L242,2177Z" fill="#93c8bc" stroke="#93c8bc" stroke-width="1.51"/><path d="M420,360L206,724L820,1045Z" fill="#b5e1b6" stroke="#b5e1b6" stroke-width="1.51"/><path d="M4287,2645L3158,2490L3178,2996Z" fill="#2474b3" stroke="#2474b3" stroke-width="1.51"/><path d="M925,480L420,360L820,1045Z" fill="#aedfb7" stroke="#aedfb7" stroke-width="1.51"/><path d="M475,-233L420,360L925,480Z" fill="#c2e7b5" stroke="#c2e7b5" stroke-width="1.51"/><path d="M3671,1102L3869,750L2961,625Z" fill="#6e98b1" stroke="#6e98b1" stroke-width="1.51"/><path d="M2499,-426L1843,-363L2132,310Z" fill="#9dcebc" stroke="#9dcebc" stroke-width="1.51"/><path d="M4243,1505L3869,750L3671,1102Z" fill="#5f86ad" stroke="#5f86ad" stroke-width="1.51"/><path d="M1978,3956L2913,4032L2870,3615Z" fill="#2c6eaf" stroke="#2c6eaf" stroke-width="1.51"/><path d="M2870,3615L3152,4051L3266,3459Z" fill="#2663aa" stroke="#2663aa" stroke-width="1.51"/><path d="M978,4322L1296,3112L853,3218Z" fill="#6293b1" stroke="#6293b1" stroke-width="1.51"/><path d="M2132,310L1843,-363L1348,627Z" fill="#99d3bb" stroke="#99d3bb" stroke-width="1.51"/><path d="M2499,-426L2132,310L2977,-326Z" fill="#98c4bb" stroke="#98c4bb" stroke-width="1.51"/><path d="M-477,1079L-320,1534L206,724Z" fill="#b6e1b7" stroke="#b6e1b7" stroke-width="1.51"/><path d="M206,724L-320,1534L166,1878Z" fill="#a9dbb9" stroke="#a9dbb9" stroke-width="1.51"/><path d="M28,1943L-1040,2336L57,2817Z" fill="#9fcabb" stroke="#9fcabb" stroke-width="1.51"/><path d="M3869,750L3455,148L2961,625Z" fill="#7e9fb1" stroke="#7e9fb1" stroke-width="1.51"/><path d="M4062,2156L4243,1505L3471,1632Z" fill="#447eb0" stroke="#447eb0" stroke-width="1.51"/><path d="M2594,4393L2913,4032L1978,3956Z" fill="#3169ac" stroke="#3169ac" stroke-width="1.51"/><path d="M2977,-326L2132,310L2961,625Z" fill="#8cbebb" stroke="#8cbebb" stroke-width="1.51"/><path d="M4647,2208L4431,1402L4243,1505Z" fill="#4472a3" stroke="#4472a3" stroke-width="1.51"/><path d="M4042,3296L4287,2645L3178,2996Z" fill="#2763ab" stroke="#2763ab" stroke-width="1.51"/><path d="M4042,3296L3178,2996L3266,3459Z" fill="#2363ab" stroke="#2363ab" stroke-width="1.51"/><path d="M2913,4032L3152,4051L2870,3615Z" fill="#2861aa" stroke="#2861aa" stroke-width="1.51"/><path d="M3335,4610L3152,4051L2913,4032Z" fill="#2954a3" stroke="#2954a3" stroke-width="1.51"/><path d="M3455,148L2977,-326L2961,625Z" fill="#8caeb4" stroke="#8caeb4" stroke-width="1.51"/><path d="M1501,-905L988,-404L1843,-363Z" fill="#b4dfbd" stroke="#b4dfbd" stroke-width="1.51"/><path d="M1843,-363L988,-404L1348,627Z" fill="#abdbb8" stroke="#abdbb8" stroke-width="1.51"/><path d="M4142,4055L4042,3296L3266,3459Z" fill="#2550a2" stroke="#2550a2" stroke-width="1.51"/><path d="M4243,1505L4431,1402L3869,750Z" fill="#5b7eaa" stroke="#5b7eaa" stroke-width="1.51"/><path d="M3869,750L3860,-183L3455,148Z" fill="#8799ac" stroke="#8799ac" stroke-width="1.51"/><path d="M4647,2208L4243,1505L4062,2156Z" fill="#3c71a8" stroke="#3c71a8" stroke-width="1.51"/><path d="M1905,4179L2594,4393L1978,3956Z" fill="#396fac" stroke="#396fac" stroke-width="1.51"/><path d="M-320,1534L-1040,2336L28,1943Z" fill="#a6d7bd" stroke="#a6d7bd" stroke-width="1.51"/><path d="M-512,558L-477,1079L206,724Z" fill="#c6e8b5" stroke="#c6e8b5" stroke-width="1.51"/><path d="M-512,558L206,724L420,360Z" fill="#c9e9b5" stroke="#c9e9b5" stroke-width="1.51"/><path d="M517,3419L978,4322L853,3218Z" fill="#7094af" stroke="#7094af" stroke-width="1.51"/><path d="M1905,4179L2133,4822L2594,4393Z" fill="#3369a2" stroke="#3369a2" stroke-width="1.51"/><path d="M673,4287L978,4322L517,3419Z" fill="#748baa" stroke="#748baa" stroke-width="1.51"/><path d="M988,-404L475,-233L925,480Z" fill="#c0e6b5" stroke="#c0e6b5" stroke-width="1.51"/><path d="M-351,3570L673,4287L517,3419Z" fill="#8698ac" stroke="#8698ac" stroke-width="1.51"/><path d="M518,4622L1275,4524L978,4322Z" fill="#637c9d" stroke="#637c9d" stroke-width="1.51"/><path d="M978,4322L1275,4524L1905,4179Z" fill="#5278a5" stroke="#5278a5" stroke-width="1.51"/><path d="M3607,-464L2763,-677L2977,-326Z" fill="#9cb3b7" stroke="#9cb3b7" stroke-width="1.51"/><path d="M2977,-326L2763,-677L2499,-426Z" fill="#9dc1bc" stroke="#9dc1bc" stroke-width="1.51"/><path d="M2239,-933L1501,-905L1843,-363Z" fill="#abd9c4" stroke="#abd9c4" stroke-width="1.51"/><path d="M4287,2645L4647,2208L4062,2156Z" fill="#3368a7" stroke="#3368a7" stroke-width="1.51"/><path d="M4456,3097L4647,2208L4287,2645Z" fill="#285fa0" stroke="#285fa0" stroke-width="1.51"/><path d="M4431,1402L4346,584L3869,750Z" fill="#6a82a8" stroke="#6a82a8" stroke-width="1.51"/><path d="M3455,148L3607,-464L2977,-326Z" fill="#95a9b1" stroke="#95a9b1" stroke-width="1.51"/><path d="M4538,599L4346,584L4431,1402Z" fill="#687e9f" stroke="#687e9f" stroke-width="1.51"/><path d="M4474,3301L4456,3097L4042,3296Z" fill="#264f9d" stroke="#264f9d" stroke-width="1.51"/><path d="M4042,3296L4456,3097L4287,2645Z" fill="#2957a4" stroke="#2957a4" stroke-width="1.51"/><path d="M-510,22L-512,558L420,360Z" fill="#d8efb3" stroke="#d8efb3" stroke-width="1.51"/><path d="M518,4622L1582,4716L1275,4524Z" fill="#567798" stroke="#567798" stroke-width="1.51"/><path d="M1275,4524L1582,4716L1905,4179Z" fill="#4873a0" stroke="#4873a0" stroke-width="1.51"/><path d="M4346,584L3860,-183L3869,750Z" fill="#848fa9" stroke="#848fa9" stroke-width="1.51"/><path d="M-1009,943L-844,1431L-477,1079Z" fill="#bee4c0" stroke="#bee4c0" stroke-width="1.51"/><path d="M-477,1079L-844,1431L-320,1534Z" fill="#b6e0bc" stroke="#b6e0bc" stroke-width="1.51"/><path d="M57,2817L-351,3570L517,3419Z" fill="#8da9b3" stroke="#8da9b3" stroke-width="1.51"/><path d="M-948,3085L-351,3570L57,2817Z" fill="#9ab2b4" stroke="#9ab2b4" stroke-width="1.51"/><path d="M2239,-933L1843,-363L2499,-426Z" fill="#a5d1c0" stroke="#a5d1c0" stroke-width="1.51"/><path d="M988,-404L722,-1044L475,-233Z" fill="#ceebb9" stroke="#ceebb9" stroke-width="1.51"/><path d="M3662,-884L2239,-933L2763,-677Z" fill="#a0bec3" stroke="#a0bec3" stroke-width="1.51"/><path d="M2763,-677L2239,-933L2499,-426Z" fill="#a2c9c2" stroke="#a2c9c2" stroke-width="1.51"/><path d="M4456,3097L4918,3999L4647,2208Z" fill="#204d91" stroke="#204d91" stroke-width="1.51"/><path d="M4142,4055L4474,3301L4042,3296Z" fill="#26479d" stroke="#26479d" stroke-width="1.51"/><path d="M4142,4055L3266,3459L3152,4051Z" fill="#2552a2" stroke="#2552a2" stroke-width="1.51"/><path d="M3860,-183L3607,-464L3455,148Z" fill="#92a0ad" stroke="#92a0ad" stroke-width="1.51"/><path d="M4346,584L4700,-194L3860,-183Z" fill="#8a8ba3" stroke="#8a8ba3" stroke-width="1.51"/><path d="M4813,852L4538,599L4431,1402Z" fill="#607a98" stroke="#607a98" stroke-width="1.51"/><path d="M1582,4716L2133,4822L1905,4179Z" fill="#396d9d" stroke="#396d9d" stroke-width="1.51"/><path d="M2594,4393L3335,4610L2913,4032Z" fill="#2858a1" stroke="#2858a1" stroke-width="1.51"/><path d="M-844,1431L-1040,2336L-320,1534Z" fill="#addbc3" stroke="#addbc3" stroke-width="1.51"/><path d="M2133,4822L3335,4610L2594,4393Z" fill="#245b9a" stroke="#245b9a" stroke-width="1.51"/><path d="M4099,-1059L3607,-464L3860,-183Z" fill="#999caf" stroke="#999caf" stroke-width="1.51"/><path d="M4099,-1059L3662,-884L3607,-464Z" fill="#9b9fb5" stroke="#9b9fb5" stroke-width="1.51"/><path d="M4647,2208L4813,852L4431,1402Z" fill="#48729a" stroke="#48729a" stroke-width="1.51"/><path d="M3335,4610L4142,4055L3152,4051Z" fill="#25479c" stroke="#25479c" stroke-width="1.51"/><path d="M-474,4274L518,4622L673,4287Z" fill="#83889f" stroke="#83889f" stroke-width="1.51"/><path d="M673,4287L518,4622L978,4322Z" fill="#6f81a0" stroke="#6f81a0" stroke-width="1.51"/><path d="M1582,4716L-240,4882L2133,4822Z" fill="#507291" stroke="#507291" stroke-width="1.51"/><path d="M475,-233L-510,22L420,360Z" fill="#d6efb3" stroke="#d6efb3" stroke-width="1.51"/><path d="M-512,558L-1009,943L-477,1079Z" fill="#c9eabd" stroke="#c9eabd" stroke-width="1.51"/><path d="M-232,-893L-510,22L475,-233Z" fill="#e6f5b2" stroke="#e6f5b2" stroke-width="1.51"/><path d="M-844,1431L-1009,943L-1040,2336Z" fill="#b5dec8" stroke="#b5dec8" stroke-width="1.51"/><path d="M-775,249L-1009,943L-512,558Z" fill="#d6efbd" stroke="#d6efbd" stroke-width="1.51"/><path d="M-1040,2336L-948,3085L57,2817Z" fill="#9fc2c0" stroke="#9fc2c0" stroke-width="1.51"/><path d="M-351,3570L-474,4274L673,4287Z" fill="#8f92a9" stroke="#8f92a9" stroke-width="1.51"/><path d="M-1120,3399L-567,3827L-351,3570Z" fill="#9ba4b4" stroke="#9ba4b4" stroke-width="1.51"/><path d="M-510,22L-775,249L-512,558Z" fill="#dff3b8" stroke="#dff3b8" stroke-width="1.51"/><path d="M-510,22L-1048,-45L-775,249Z" fill="#e7f6bc" stroke="#e7f6bc" stroke-width="1.51"/><path d="M1501,-905L722,-1044L988,-404Z" fill="#c2e6c0" stroke="#c2e6c0" stroke-width="1.51"/><path d="M2239,-933L722,-1044L1501,-905Z" fill="#b7e0c7" stroke="#b7e0c7" stroke-width="1.51"/><path d="M4700,-194L4346,584L4538,599Z" fill="#7d849a" stroke="#7d849a" stroke-width="1.51"/><path d="M3607,-464L3662,-884L2763,-677Z" fill="#9cacb8" stroke="#9cacb8" stroke-width="1.51"/><path d="M2239,-933L4099,-1059L722,-1044Z" fill="#a6cfcb" stroke="#a6cfcb" stroke-width="1.51"/><path d="M722,-1044L272,-951L475,-233Z" fill="#daf0bc" stroke="#daf0bc" stroke-width="1.51"/><path d="M-567,3827L-474,4274L-351,3570Z" fill="#999aac" stroke="#999aac" stroke-width="1.51"/><path d="M-1102,4465L-474,4274L-567,3827Z" fill="#9a92ae" stroke="#9a92ae" stroke-width="1.51"/><path d="M-948,3085L-1120,3399L-351,3570Z" fill="#9cadbb" stroke="#9cadbb" stroke-width="1.51"/><path d="M-1040,2336L-1120,3399L-948,3085Z" fill="#a1bdc7" stroke="#a1bdc7" stroke-width="1.51"/><path d="M-1048,-45L-1120,3399L-1040,2336Z" fill="#addacd" stroke="#addacd" stroke-width="1.51"/><path d="M4813,852L4700,-194L4538,599Z" fill="#768093" stroke="#768093" stroke-width="1.51"/><path d="M-1019,-1036L-232,-893L272,-951Z" fill="#f3fac0" stroke="#f3fac0" stroke-width="1.51"/><path d="M272,-951L-232,-893L475,-233Z" fill="#e3f4ba" stroke="#e3f4ba" stroke-width="1.51"/><path d="M-1009,943L-1048,-45L-1040,2336Z" fill="#c4e7c6" stroke="#c4e7c6" stroke-width="1.51"/><path d="M-775,249L-1048,-45L-1009,943Z" fill="#e1f3c1" stroke="#e1f3c1" stroke-width="1.51"/><path d="M-1019,-1036L-1048,-45L-510,22Z" fill="#f2fabe" stroke="#f2fabe" stroke-width="1.51"/><path d="M4577,4425L4918,3999L4142,4055Z" fill="#1f3188" stroke="#1f3188" stroke-width="1.51"/><path d="M4142,4055L4918,3999L4474,3301Z" fill="#203b8e" stroke="#203b8e" stroke-width="1.51"/><path d="M4474,3301L4918,3999L4456,3097Z" fill="#1e428e" stroke="#1e428e" stroke-width="1.51"/><path d="M4647,2208L4918,3999L4813,852Z" fill="#285f94" stroke="#285f94" stroke-width="1.51"/><path d="M4330,4875L4577,4425L4142,4055Z" fill="#1e2e86" stroke="#1e2e86" stroke-width="1.51"/><path d="M4330,4875L4142,4055L3335,4610Z" fill="#20378c" stroke="#20378c" stroke-width="1.51"/><path d="M4700,-194L4099,-1059L3860,-183Z" fill="#9890a8" stroke="#9890a8" stroke-width="1.51"/><path d="M3662,-884L4099,-1059L2239,-933Z" fill="#9eaebf" stroke="#9eaebf" stroke-width="1.51"/><path d="M-474,4274L-240,4882L518,4622Z" fill="#858797" stroke="#858797" stroke-width="1.51"/><path d="M518,4622L-240,4882L1582,4716Z" fill="#6c7c92" stroke="#6c7c92" stroke-width="1.51"/><path d="M-1102,4465L-240,4882L-474,4274Z" fill="#908b9e" stroke="#908b9e" stroke-width="1.51"/><path d="M4577,4425L4330,4875L4918,3999Z" fill="#1a2b7c" stroke="#1a2b7c" stroke-width="1.51"/><path d="M2133,4822L4330,4875L3335,4610Z" fill="#1d468b" stroke="#1d468b" stroke-width="1.51"/><path d="M-240,4882L4330,4875L2133,4822Z" fill="#2d6492" stroke="#2d6492" stroke-width="1.51"/><path d="M-1120,3399L-1102,4465L-567,3827Z" fill="#9c9cb7" stroke="#9c9cb7" stroke-width="1.51"/><path d="M4700,-194L4966,-710L4099,-1059Z" fill="#8f8a9d" stroke="#8f8a9d" stroke-width="1.51"/><path d="M4813,852L4966,-710L4700,-194Z" fill="#7e828d" stroke="#7e828d" stroke-width="1.51"/><path d="M4918,3999L4966,-710L4813,852Z" fill="#466e8e" stroke="#466e8e" stroke-width="1.51"/><path d="M-232,-893L-1019,-1036L-510,22Z" fill="#f3fabd" stroke="#f3fabd" stroke-width="1.51"/><path d="M722,-1044L-1019,-1036L272,-951Z" fill="#ecf8c2" stroke="#ecf8c2" stroke-width="1.51"/></svg>