<svg xmlns="http://www.w3.org/2000/svg" width="3840" height="3840"><path d="M1381,2107L1415,1448L730,1737Z" fill="#fe9f44" stroke="#fe9f44" stroke-width="1.51"/><path d="M730,1737L439,2335L1381,2107Z" fill="#fe9f46" stroke="#fe9f46" stroke-width="1.51"/><path d="M1415,1448L276,273L730,1737Z" fill="#feb34f" stroke="#feb34f" stroke-width="1.51"/><path d="M2189,1367L1643,816L1415,1448Z" fill="#fe9f43" stroke="#fe9f43" stroke-width="1.51"/><path d="M1381,2107L2189,1367L1415,1448Z" fill="#fe9941" stroke="#fe9941" stroke-width="1.51"/><path d="M1381,2107L2231,2473L2189,1367Z" fill="#fd8b3b" stroke="#fd8b3b" stroke-width="1.51"/><path d="M1570,3199L2231,2473L1381,2107Z" fill="#fd7d37" stroke="#fd7d37" stroke-width="1.51"/><path d="M439,2335L1570,3199L1381,2107Z" fill="#ff8b3c" stroke="#ff8b3c" stroke-width="1.51"/><path d="M3081,261L2216,656L2189,1367Z" fill="#ff9543" stroke="#ff9543" stroke-width="1.51"/><path d="M2189,1367L2216,656L1643,816Z" fill="#fe9e44" stroke="#fe9e44" stroke-width="1.51"/><path d="M730,1737L-478,1739L439,2335Z" fill="#ffb055" stroke="#ffb055" stroke-width="1.51"/><path d="M439,2335L360,3546L1570,3199Z" fill="#fd873d" stroke="#fd873d" stroke-width="1.51"/><path d="M-456,605L-478,1739L730,1737Z" fill="#ffc062" stroke="#ffc062" stroke-width="1.51"/><path d="M-478,1739L-465,2270L439,2335Z" fill="#ffb15c" stroke="#ffb15c" stroke-width="1.51"/><path d="M1643,816L276,273L1415,1448Z" fill="#feb44f" stroke="#feb44f" stroke-width="1.51"/><path d="M379,-413L276,273L1228,-657Z" fill="#ffd172" stroke="#ffd172" stroke-width="1.51"/><path d="M-290,3360L360,3546L439,2335Z" fill="#ff944a" stroke="#ff944a" stroke-width="1.51"/><path d="M276,273L-456,605L730,1737Z" fill="#fec662" stroke="#fec662" stroke-width="1.51"/><path d="M1570,3199L2331,3508L2231,2473Z" fill="#fa6830" stroke="#fa6830" stroke-width="1.51"/><path d="M2231,2473L3168,2367L2189,1367Z" fill="#fd7634" stroke="#fd7634" stroke-width="1.51"/><path d="M1639,4392L2331,3508L1570,3199Z" fill="#f2622c" stroke="#f2622c" stroke-width="1.51"/><path d="M2331,3508L3168,2367L2231,2473Z" fill="#fd5b2d" stroke="#fd5b2d" stroke-width="1.51"/><path d="M-465,2270L-290,3360L439,2335Z" fill="#ffa154" stroke="#ffa154" stroke-width="1.51"/><path d="M-456,605L-1090,1728L-478,1739Z" fill="#ffc76f" stroke="#ffc76f" stroke-width="1.51"/><path d="M-478,1739L-1090,1728L-465,2270Z" fill="#ffbc6a" stroke="#ffbc6a" stroke-width="1.51"/><path d="M-465,2270L-1267,3133L-290,3360Z" fill="#ffa15f" stroke="#ffa15f" stroke-width="1.51"/><path d="M276,273L-98,-337L-456,605Z" fill="#fed978" stroke="#fed978" stroke-width="1.51"/><path d="M1228,-657L276,273L1643,816Z" fill="#ffc35f" stroke="#ffc35f" stroke-width="1.51"/><path d="M3168,2367L3531,1675L2189,1367Z" fill="#fc7133" stroke="#fc7133" stroke-width="1.51"/><path d="M2216,656L2250,-379L1643,816Z" fill="#ffaa51" stroke="#ffaa51" stroke-width="1.51"/><path d="M3081,261L2250,-379L2216,656Z" fill="#ffa150" stroke="#ffa150" stroke-width="1.51"/><path d="M2250,-379L1228,-657L1643,816Z" fill="#ffba5e" stroke="#ffba5e" stroke-width="1.51"/><path d="M379,-413L-98,-337L276,273Z" fill="#ffd979" stroke="#ffd979" stroke-width="1.51"/><path d="M-456,605L-1382,533L-1090,1728Z" fill="#ffd27a" stroke="#ffd27a" stroke-width="1.51"/><path d="M-630,-1100L-98,-337L379,-413Z" fill="#ffe28b" stroke="#ffe28b" stroke-width="1.51"/><path d="M3531,1675L3081,261L2189,1367Z" fill="#fe8139" stroke="#fe8139" stroke-width="1.51"/><path d="M-125,4453L722,4181L360,3546Z" fill="#f08243" stroke="#f08243" stroke-width="1.51"/><path d="M360,3546L722,4181L1570,3199Z" fill="#f57a36" stroke="#f57a36" stroke-width="1.51"/><path d="M-1382,533L-1368,2211L-1090,1728Z" fill="#ffca7c" stroke="#ffca7c" stroke-width="1.51"/><path d="M-1090,1728L-1368,2211L-465,2270Z" fill="#ffbb6f" stroke="#ffbb6f" stroke-width="1.51"/><path d="M722,4181L1639,4392L1570,3199Z" fill="#ef6c31" stroke="#ef6c31" stroke-width="1.51"/><path d="M3168,2367L4043,2589L3531,1675Z" fill="#f3582a" stroke="#f3582a" stroke-width="1.51"/><path d="M2331,3508L3550,3059L3168,2367Z" fill="#f84727" stroke="#f84727" stroke-width="1.51"/><path d="M3387,4138L3550,3059L2331,3508Z" fill="#ef3722" stroke="#ef3722" stroke-width="1.51"/><path d="M-1368,2211L-1267,3133L-465,2270Z" fill="#ffaf6b" stroke="#ffaf6b" stroke-width="1.51"/><path d="M-290,3360L-125,4453L360,3546Z" fill="#f68b48" stroke="#f68b48" stroke-width="1.51"/><path d="M1639,4392L2380,4256L2331,3508Z" fill="#eb552b" stroke="#eb552b" stroke-width="1.51"/><path d="M-1172,-456L-1382,533L-456,605Z" fill="#ffe18c" stroke="#ffe18c" stroke-width="1.51"/><path d="M4146,471L3343,-161L3081,261Z" fill="#f98c46" stroke="#f98c46" stroke-width="1.51"/><path d="M3081,261L3343,-161L2250,-379Z" fill="#ff9b52" stroke="#ff9b52" stroke-width="1.51"/><path d="M2250,-379L1529,-1360L1228,-657Z" fill="#ffc26f" stroke="#ffc26f" stroke-width="1.51"/><path d="M722,4181L1247,4978L1639,4392Z" fill="#e36936" stroke="#e36936" stroke-width="1.51"/><path d="M-1240,4250L-125,4453L-290,3360Z" fill="#f38f56" stroke="#f38f56" stroke-width="1.51"/><path d="M3550,3059L4043,2589L3168,2367Z" fill="#f34526" stroke="#f34526" stroke-width="1.51"/><path d="M3531,1675L4146,471L3081,261Z" fill="#f67c38" stroke="#f67c38" stroke-width="1.51"/><path d="M4350,3393L4043,2589L3550,3059Z" fill="#e83123" stroke="#e83123" stroke-width="1.51"/><path d="M4043,2589L4268,1517L3531,1675Z" fill="#ed5d2c" stroke="#ed5d2c" stroke-width="1.51"/><path d="M1228,-657L619,-1409L379,-413Z" fill="#ffd57c" stroke="#ffd57c" stroke-width="1.51"/><path d="M2612,-1343L1529,-1360L2250,-379Z" fill="#ffba70" stroke="#ffba70" stroke-width="1.51"/><path d="M-630,-1100L-1172,-456L-98,-337Z" fill="#ffe896" stroke="#ffe896" stroke-width="1.51"/><path d="M-98,-337L-1172,-456L-456,605Z" fill="#ffe188" stroke="#ffe188" stroke-width="1.51"/><path d="M291,5233L1247,4978L722,4181Z" fill="#dc703d" stroke="#dc703d" stroke-width="1.51"/><path d="M1639,4392L2334,5075L2380,4256Z" fill="#e0512e" stroke="#e0512e" stroke-width="1.51"/><path d="M1529,-1360L619,-1409L1228,-657Z" fill="#ffd07c" stroke="#ffd07c" stroke-width="1.51"/><path d="M3558,5038L3387,4138L2380,4256Z" fill="#dd2b25" stroke="#dd2b25" stroke-width="1.51"/><path d="M2380,4256L3387,4138L2331,3508Z" fill="#eb3e26" stroke="#eb3e26" stroke-width="1.51"/><path d="M4268,1517L4146,471L3531,1675Z" fill="#ee6d32" stroke="#ee6d32" stroke-width="1.51"/><path d="M619,-1409L-630,-1100L379,-413Z" fill="#ffe38d" stroke="#ffe38d" stroke-width="1.51"/><path d="M1529,-1360L3074,-1531L619,-1409Z" fill="#ffc67d" stroke="#ffc67d" stroke-width="1.51"/><path d="M3343,-161L2612,-1343L2250,-379Z" fill="#ffa560" stroke="#ffa560" stroke-width="1.51"/><path d="M3074,-1531L2612,-1343L3343,-161Z" fill="#ffa365" stroke="#ffa365" stroke-width="1.51"/><path d="M-125,4453L291,5233L722,4181Z" fill="#e37d46" stroke="#e37d46" stroke-width="1.51"/><path d="M-1267,3133L-1240,4250L-290,3360Z" fill="#fc985f" stroke="#fc985f" stroke-width="1.51"/><path d="M-1466,5305L-1240,4250L-1267,3133Z" fill="#f19468" stroke="#f19468" stroke-width="1.51"/><path d="M1247,4978L2334,5075L1639,4392Z" fill="#d95a32" stroke="#d95a32" stroke-width="1.51"/><path d="M-492,5195L291,5233L-125,4453Z" fill="#d88050" stroke="#d88050" stroke-width="1.51"/><path d="M1247,4978L291,5233L2334,5075Z" fill="#d06237" stroke="#d06237" stroke-width="1.51"/><path d="M4043,2589L4879,1643L4268,1517Z" fill="#e45a2f" stroke="#e45a2f" stroke-width="1.51"/><path d="M3387,4138L4350,3393L3550,3059Z" fill="#e6231d" stroke="#e6231d" stroke-width="1.51"/><path d="M4874,3097L4350,3393L4909,4395Z" fill="#d11623" stroke="#d11623" stroke-width="1.51"/><path d="M5124,2640L4879,1643L4043,2589Z" fill="#dd492d" stroke="#dd492d" stroke-width="1.51"/><path d="M4268,1517L4868,321L4146,471Z" fill="#e6743c" stroke="#e6743c" stroke-width="1.51"/><path d="M4868,321L4231,-427L4146,471Z" fill="#e88349" stroke="#e88349" stroke-width="1.51"/><path d="M4146,471L4231,-427L3343,-161Z" fill="#f38a4a" stroke="#f38a4a" stroke-width="1.51"/><path d="M-1240,4250L-492,5195L-125,4453Z" fill="#e6895a" stroke="#e6895a" stroke-width="1.51"/><path d="M2612,-1343L3074,-1531L1529,-1360Z" fill="#ffb675" stroke="#ffb675" stroke-width="1.51"/><path d="M4065,-1196L3074,-1531L3343,-161Z" fill="#fd9a60" stroke="#fd9a60" stroke-width="1.51"/><path d="M4350,3393L4874,3097L4043,2589Z" fill="#df2e26" stroke="#df2e26" stroke-width="1.51"/><path d="M4210,4297L4350,3393L3387,4138Z" fill="#db161f" stroke="#db161f" stroke-width="1.51"/><path d="M3558,5038L4210,4297L3387,4138Z" fill="#d41421" stroke="#d41421" stroke-width="1.51"/><path d="M4879,1643L4868,321L4268,1517Z" fill="#e06937" stroke="#e06937" stroke-width="1.51"/><path d="M2334,5075L3558,5038L2380,4256Z" fill="#d9342a" stroke="#d9342a" stroke-width="1.51"/><path d="M4388,5290L3558,5038L2334,5075Z" fill="#c51c25" stroke="#c51c25" stroke-width="1.51"/><path d="M4874,3097L5124,2640L4043,2589Z" fill="#dc3429" stroke="#dc3429" stroke-width="1.51"/><path d="M4879,1643L5272,-427L4868,321Z" fill="#d67443" stroke="#d67443" stroke-width="1.51"/><path d="M4862,-1407L4065,-1196L4231,-427Z" fill="#ec9061" stroke="#ec9061" stroke-width="1.51"/><path d="M4231,-427L4065,-1196L3343,-161Z" fill="#f69056" stroke="#f69056" stroke-width="1.51"/><path d="M619,-1409L-1573,-1454L-630,-1100Z" fill="#ffeea5" stroke="#ffeea5" stroke-width="1.51"/><path d="M-630,-1100L-1573,-1454L-1172,-456Z" fill="#fff1ab" stroke="#fff1ab" stroke-width="1.51"/><path d="M-1172,-456L-1573,-1454L-1382,533Z" fill="#ffeea4" stroke="#ffeea4" stroke-width="1.51"/><path d="M-1382,533L-1573,-1454L-1368,2211Z" fill="#ffe191" stroke="#ffe191" stroke-width="1.51"/><path d="M3074,-1531L-1573,-1454L619,-1409Z" fill="#ffdb8c" stroke="#ffdb8c" stroke-width="1.51"/><path d="M-1573,-1454L-1466,5305L-1368,2211Z" fill="#ffc17c" stroke="#ffc17c" stroke-width="1.51"/><path d="M-1368,2211L-1466,5305L-1267,3133Z" fill="#fe9d69" stroke="#fe9d69" stroke-width="1.51"/><path d="M-1240,4250L-1466,5305L-492,5195Z" fill="#dd8a64" stroke="#dd8a64" stroke-width="1.51"/><path d="M-492,5195L-1466,5305L291,5233Z" fill="#d08259" stroke="#d08259" stroke-width="1.51"/><path d="M4874,3097L4909,4395L5124,2640Z" fill="#cc1e25" stroke="#cc1e25" stroke-width="1.51"/><path d="M4210,4297L4909,4395L4350,3393Z" fill="#ce0e22" stroke="#ce0e22" stroke-width="1.51"/><path d="M4388,5290L4909,4395L4210,4297Z" fill="#c10325" stroke="#c10325" stroke-width="1.51"/><path d="M4868,321L5272,-427L4231,-427Z" fill="#df8351" stroke="#df8351" stroke-width="1.51"/><path d="M5124,2640L5272,-427L4879,1643Z" fill="#d16237" stroke="#d16237" stroke-width="1.51"/><path d="M3558,5038L4388,5290L4210,4297Z" fill="#c30923" stroke="#c30923" stroke-width="1.51"/><path d="M291,5233L4388,5290L2334,5075Z" fill="#cb432e" stroke="#cb432e" stroke-width="1.51"/><path d="M-1466,5305L4388,5290L291,5233Z" fill="#ca6439" stroke="#ca6439" stroke-width="1.51"/><path d="M5272,-427L4862,-1407L4231,-427Z" fill="#e1895d" stroke="#e1895d" stroke-width="1.51"/><path d="M4065,-1196L4862,-1407L3074,-1531Z" fill="#f69768" stroke="#f69768" stroke-width="1.51"/><path d="M5124,2640L5192,5208L5272,-427Z" fill="#cb3e2d" stroke="#cb3e2d" stroke-width="1.51"/><path d="M4909,4395L5192,5208L5124,2640Z" fill="#bc0824" stroke="#bc0824" stroke-width="1.51"/><path d="M4388,5290L5192,5208L4909,4395Z" fill="#ae0026" stroke="#ae0026" stroke-width="1.51"/></svg>