<svg xmlns="http://www.w3.org/2000/svg" width="3840" height="3840"><path d="M1720,1824L1313,2262L1684,2257Z" fill="#83cdc2" stroke="#83cdc2" stroke-width="1.51"/><path d="M1720,1824L1215,1778L1313,2262Z" fill="#8dd2bf" stroke="#8dd2bf" stroke-width="1.51"/><path d="M1313,2262L1326,2559L1684,2257Z" fill="#81cac4" stroke="#81cac4" stroke-width="1.51"/><path d="M855,2475L1326,2559L1313,2262Z" fill="#8accc4" stroke="#8accc4" stroke-width="1.51"/><path d="M1326,2559L1714,2586L1684,2257Z" fill="#7ac6c6" stroke="#7ac6c6" stroke-width="1.51"/><path d="M1684,2257L2257,2116L1720,1824Z" fill="#79c9c5" stroke="#79c9c5" stroke-width="1.51"/><path d="M1215,1778L730,2261L1313,2262Z" fill="#94d2c1" stroke="#94d2c1" stroke-width="1.51"/><path d="M778,1379L863,1735L1215,1778Z" fill="#a5dbbd" stroke="#a5dbbd" stroke-width="1.51"/><path d="M2083,2693L2257,2116L1684,2257Z" fill="#6cc2ca" stroke="#6cc2ca" stroke-width="1.51"/><path d="M730,2261L855,2475L1313,2262Z" fill="#91d0c5" stroke="#91d0c5" stroke-width="1.51"/><path d="M863,1735L730,2261L1215,1778Z" fill="#9cd8c0" stroke="#9cd8c0" stroke-width="1.51"/><path d="M1720,1824L1822,1226L1215,1778Z" fill="#92d4bd" stroke="#92d4bd" stroke-width="1.51"/><path d="M2257,2116L2225,1570L1720,1824Z" fill="#7acac5" stroke="#7acac5" stroke-width="1.51"/><path d="M2079,1351L1822,1226L1720,1824Z" fill="#8ed2bf" stroke="#8ed2bf" stroke-width="1.51"/><path d="M2225,1570L2079,1351L1720,1824Z" fill="#85cfc2" stroke="#85cfc2" stroke-width="1.51"/><path d="M1714,2586L2083,2693L1684,2257Z" fill="#6ec2ca" stroke="#6ec2ca" stroke-width="1.51"/><path d="M1641,3094L2083,2693L1714,2586Z" fill="#68bbc8" stroke="#68bbc8" stroke-width="1.51"/><path d="M1822,1226L1247,1111L1215,1778Z" fill="#9fd9b9" stroke="#9fd9b9" stroke-width="1.51"/><path d="M1247,1111L778,1379L1215,1778Z" fill="#a7ddb9" stroke="#a7ddb9" stroke-width="1.51"/><path d="M863,1735L311,2181L730,2261Z" fill="#a1d8c6" stroke="#a1d8c6" stroke-width="1.51"/><path d="M1326,2559L1322,2987L1714,2586Z" fill="#79c2c5" stroke="#79c2c5" stroke-width="1.51"/><path d="M820,2916L1322,2987L1326,2559Z" fill="#81c1c2" stroke="#81c1c2" stroke-width="1.51"/><path d="M1322,2987L1641,3094L1714,2586Z" fill="#72bbc3" stroke="#72bbc3" stroke-width="1.51"/><path d="M855,2475L820,2916L1326,2559Z" fill="#89c8c7" stroke="#89c8c7" stroke-width="1.51"/><path d="M1322,2987L1335,3513L1641,3094Z" fill="#71b3bd" stroke="#71b3bd" stroke-width="1.51"/><path d="M322,2654L820,2916L855,2475Z" fill="#92cbca" stroke="#92cbca" stroke-width="1.51"/><path d="M2257,2116L2579,1689L2225,1570Z" fill="#74c5c8" stroke="#74c5c8" stroke-width="1.51"/><path d="M2225,1570L2629,1186L2079,1351Z" fill="#86cbc3" stroke="#86cbc3" stroke-width="1.51"/><path d="M2614,2230L2579,1689L2257,2116Z" fill="#68c0cc" stroke="#68c0cc" stroke-width="1.51"/><path d="M2517,2689L2614,2230L2257,2116Z" fill="#5dbacf" stroke="#5dbacf" stroke-width="1.51"/><path d="M2517,2689L2257,2116L2083,2693Z" fill="#5ebacf" stroke="#5ebacf" stroke-width="1.51"/><path d="M1822,1226L1817,926L1247,1111Z" fill="#a1d9bc" stroke="#a1d9bc" stroke-width="1.51"/><path d="M2079,1351L1817,926L1822,1226Z" fill="#95d5be" stroke="#95d5be" stroke-width="1.51"/><path d="M2207,715L1817,926L2079,1351Z" fill="#98d5c1" stroke="#98d5c1" stroke-width="1.51"/><path d="M1641,3094L2085,3046L2083,2693Z" fill="#60b4c6" stroke="#60b4c6" stroke-width="1.51"/><path d="M730,2261L322,2654L855,2475Z" fill="#98d1ca" stroke="#98d1ca" stroke-width="1.51"/><path d="M252,1718L311,2181L863,1735Z" fill="#a9dcc6" stroke="#a9dcc6" stroke-width="1.51"/><path d="M1247,1111L1130,860L778,1379Z" fill="#b1e1b9" stroke="#b1e1b9" stroke-width="1.51"/><path d="M1817,926L1130,860L1247,1111Z" fill="#abdeba" stroke="#abdeba" stroke-width="1.51"/><path d="M2085,3046L2517,2689L2083,2693Z" fill="#58b3cc" stroke="#58b3cc" stroke-width="1.51"/><path d="M778,1379L252,1718L863,1735Z" fill="#aedfc1" stroke="#aedfc1" stroke-width="1.51"/><path d="M226,1236L252,1718L778,1379Z" fill="#b7e3c1" stroke="#b7e3c1" stroke-width="1.51"/><path d="M-46,2630L322,2654L311,2181Z" fill="#9ed3d2" stroke="#9ed3d2" stroke-width="1.51"/><path d="M311,2181L322,2654L730,2261Z" fill="#9ed3cc" stroke="#9ed3cc" stroke-width="1.51"/><path d="M1130,860L664,919L778,1379Z" fill="#b8e3bc" stroke="#b8e3bc" stroke-width="1.51"/><path d="M322,2654L488,2992L820,2916Z" fill="#92c6c9" stroke="#92c6c9" stroke-width="1.51"/><path d="M699,3438L1335,3513L1322,2987Z" fill="#7ab3bc" stroke="#7ab3bc" stroke-width="1.51"/><path d="M2579,1689L2629,1186L2225,1570Z" fill="#7dc7c6" stroke="#7dc7c6" stroke-width="1.51"/><path d="M2901,1247L2629,1186L2579,1689Z" fill="#7cc3c4" stroke="#7cc3c4" stroke-width="1.51"/><path d="M2614,2230L2928,2255L2579,1689Z" fill="#60b9cb" stroke="#60b9cb" stroke-width="1.51"/><path d="M2517,2689L2928,2255L2614,2230Z" fill="#55b3d0" stroke="#55b3d0" stroke-width="1.51"/><path d="M2517,2689L3082,2648L2928,2255Z" fill="#4baccf" stroke="#4baccf" stroke-width="1.51"/><path d="M2085,3046L2489,3107L2517,2689Z" fill="#50accb" stroke="#50accb" stroke-width="1.51"/><path d="M2142,3430L2489,3107L2085,3046Z" fill="#4fa8c6" stroke="#4fa8c6" stroke-width="1.51"/><path d="M2629,1186L2207,715L2079,1351Z" fill="#8fcfc3" stroke="#8fcfc3" stroke-width="1.51"/><path d="M1817,926L1278,444L1130,860Z" fill="#b1e1bd" stroke="#b1e1bd" stroke-width="1.51"/><path d="M1130,860L689,492L664,919Z" fill="#c1e7c0" stroke="#c1e7c0" stroke-width="1.51"/><path d="M664,919L226,1236L778,1379Z" fill="#bde5be" stroke="#bde5be" stroke-width="1.51"/><path d="M252,1718L-1,2036L311,2181Z" fill="#abddcc" stroke="#abddcc" stroke-width="1.51"/><path d="M322,2654L-153,3076L488,2992Z" fill="#96c7ce" stroke="#96c7ce" stroke-width="1.51"/><path d="M-131,1689L-1,2036L252,1718Z" fill="#b1e0cc" stroke="#b1e0cc" stroke-width="1.51"/><path d="M699,3438L1322,2987L820,2916Z" fill="#82bac0" stroke="#82bac0" stroke-width="1.51"/><path d="M1641,3094L2142,3430L2085,3046Z" fill="#5aadc3" stroke="#5aadc3" stroke-width="1.51"/><path d="M1733,3623L2142,3430L1641,3094Z" fill="#5da9bf" stroke="#5da9bf" stroke-width="1.51"/><path d="M1595,284L1278,444L1817,926Z" fill="#b1e0c1" stroke="#b1e0c1" stroke-width="1.51"/><path d="M664,919L215,841L226,1236Z" fill="#c4e8c3" stroke="#c4e8c3" stroke-width="1.51"/><path d="M3181,1832L2901,1247L2579,1689Z" fill="#70bbc4" stroke="#70bbc4" stroke-width="1.51"/><path d="M2629,1186L2559,666L2207,715Z" fill="#91cec7" stroke="#91cec7" stroke-width="1.51"/><path d="M1335,3513L1733,3623L1641,3094Z" fill="#68abbc" stroke="#68abbc" stroke-width="1.51"/><path d="M488,2992L699,3438L820,2916Z" fill="#8abdc4" stroke="#8abdc4" stroke-width="1.51"/><path d="M1335,3513L1570,3921L1733,3623Z" fill="#66a3b8" stroke="#66a3b8" stroke-width="1.51"/><path d="M212,3524L699,3438L488,2992Z" fill="#8bb9c3" stroke="#8bb9c3" stroke-width="1.51"/><path d="M-1,2036L-46,2630L311,2181Z" fill="#a5d7d1" stroke="#a5d7d1" stroke-width="1.51"/><path d="M-101,1258L-131,1689L252,1718Z" fill="#bae4ca" stroke="#bae4ca" stroke-width="1.51"/><path d="M-1,2036L-549,2191L-46,2630Z" fill="#a9d9d5" stroke="#a9d9d5" stroke-width="1.51"/><path d="M2610,308L2032,445L2207,715Z" fill="#9fd5ca" stroke="#9fd5ca" stroke-width="1.51"/><path d="M2207,715L2032,445L1817,926Z" fill="#a1d8c4" stroke="#a1d8c4" stroke-width="1.51"/><path d="M2928,2255L3181,1832L2579,1689Z" fill="#62b6c7" stroke="#62b6c7" stroke-width="1.51"/><path d="M3352,2153L3181,1832L2928,2255Z" fill="#57acc5" stroke="#57acc5" stroke-width="1.51"/><path d="M2992,3172L3082,2648L2517,2689Z" fill="#42a4cb" stroke="#42a4cb" stroke-width="1.51"/><path d="M2992,3172L2517,2689L2489,3107Z" fill="#43a5cc" stroke="#43a5cc" stroke-width="1.51"/><path d="M2142,3430L2475,3427L2489,3107Z" fill="#48a2c5" stroke="#48a2c5" stroke-width="1.51"/><path d="M2460,3896L2475,3427L2142,3430Z" fill="#459ac2" stroke="#459ac2" stroke-width="1.51"/><path d="M3055,914L2559,666L2629,1186Z" fill="#8ac6c6" stroke="#8ac6c6" stroke-width="1.51"/><path d="M226,1236L-101,1258L252,1718Z" fill="#bde5c6" stroke="#bde5c6" stroke-width="1.51"/><path d="M1278,444L689,492L1130,860Z" fill="#c0e7bf" stroke="#c0e7bf" stroke-width="1.51"/><path d="M2032,445L1595,284L1817,926Z" fill="#aaddc4" stroke="#aaddc4" stroke-width="1.51"/><path d="M1278,444L925,-124L689,492Z" fill="#c6e9c5" stroke="#c6e9c5" stroke-width="1.51"/><path d="M689,492L215,841L664,919Z" fill="#c9eac4" stroke="#c9eac4" stroke-width="1.51"/><path d="M215,841L-101,1258L226,1236Z" fill="#c5e9c6" stroke="#c5e9c6" stroke-width="1.51"/><path d="M3378,2482L3352,2153L2928,2255Z" fill="#4da6c6" stroke="#4da6c6" stroke-width="1.51"/><path d="M3442,1190L3055,914L2901,1247Z" fill="#7db8be" stroke="#7db8be" stroke-width="1.51"/><path d="M2475,3427L2992,3172L2489,3107Z" fill="#3d9ec8" stroke="#3d9ec8" stroke-width="1.51"/><path d="M3082,2648L3378,2482L2928,2255Z" fill="#48a6c9" stroke="#48a6c9" stroke-width="1.51"/><path d="M699,3438L899,3818L1335,3513Z" fill="#7badb9" stroke="#7badb9" stroke-width="1.51"/><path d="M392,4021L899,3818L699,3438Z" fill="#81abbb" stroke="#81abbb" stroke-width="1.51"/><path d="M2219,4072L2460,3896L2142,3430Z" fill="#4696be" stroke="#4696be" stroke-width="1.51"/><path d="M2898,3795L3171,3369L2992,3172Z" fill="#2f8ebf" stroke="#2f8ebf" stroke-width="1.51"/><path d="M1304,3943L1570,3921L1335,3513Z" fill="#6ba2b6" stroke="#6ba2b6" stroke-width="1.51"/><path d="M2901,1247L3055,914L2629,1186Z" fill="#82c1c2" stroke="#82c1c2" stroke-width="1.51"/><path d="M3442,1190L2901,1247L3181,1832Z" fill="#71b4be" stroke="#71b4be" stroke-width="1.51"/><path d="M899,3818L1304,3943L1335,3513Z" fill="#73a5b5" stroke="#73a5b5" stroke-width="1.51"/><path d="M3583,3018L3378,2482L3082,2648Z" fill="#3999c6" stroke="#3999c6" stroke-width="1.51"/><path d="M-46,2630L-153,3076L322,2654Z" fill="#9bcbd3" stroke="#9bcbd3" stroke-width="1.51"/><path d="M-506,3002L-153,3076L-46,2630Z" fill="#9dcad4" stroke="#9dcad4" stroke-width="1.51"/><path d="M-153,3076L212,3524L488,2992Z" fill="#91bfca" stroke="#91bfca" stroke-width="1.51"/><path d="M1798,-86L1345,19L1595,284Z" fill="#b8e3c9" stroke="#b8e3c9" stroke-width="1.51"/><path d="M1595,284L1345,19L1278,444Z" fill="#bae4c4" stroke="#bae4c4" stroke-width="1.51"/><path d="M1798,-86L1595,284L2032,445Z" fill="#afdfca" stroke="#afdfca" stroke-width="1.51"/><path d="M2610,308L2207,715L2559,666Z" fill="#9ad1cb" stroke="#9ad1cb" stroke-width="1.51"/><path d="M215,841L-202,910L-101,1258Z" fill="#caeaca" stroke="#caeaca" stroke-width="1.51"/><path d="M-607,1642L-549,2191L-131,1689Z" fill="#b9e3d3" stroke="#b9e3d3" stroke-width="1.51"/><path d="M-131,1689L-549,2191L-1,2036Z" fill="#b1e0d2" stroke="#b1e0d2" stroke-width="1.51"/><path d="M46,457L-202,910L215,841Z" fill="#d1edcc" stroke="#d1edcc" stroke-width="1.51"/><path d="M215,366L215,841L689,492Z" fill="#cfecc8" stroke="#cfecc8" stroke-width="1.51"/><path d="M3054,286L2610,308L2559,666Z" fill="#96cbcd" stroke="#96cbcd" stroke-width="1.51"/><path d="M-488,1364L-131,1689L-101,1258Z" fill="#c1e7cc" stroke="#c1e7cc" stroke-width="1.51"/><path d="M3947,1805L3556,1704L3973,2221Z" fill="#559cba" stroke="#559cba" stroke-width="1.51"/><path d="M3352,2153L3556,1704L3181,1832Z" fill="#5ba9bf" stroke="#5ba9bf" stroke-width="1.51"/><path d="M-202,910L-488,1364L-101,1258Z" fill="#c9eacb" stroke="#c9eacb" stroke-width="1.51"/><path d="M451,-94L215,366L689,492Z" fill="#d3eecc" stroke="#d3eecc" stroke-width="1.51"/><path d="M2219,4072L1733,3623L1570,3921Z" fill="#579bb9" stroke="#579bb9" stroke-width="1.51"/><path d="M2219,4072L2142,3430L1733,3623Z" fill="#519dbd" stroke="#519dbd" stroke-width="1.51"/><path d="M3556,1704L3442,1190L3181,1832Z" fill="#68acbc" stroke="#68acbc" stroke-width="1.51"/><path d="M3055,914L3054,286L2559,666Z" fill="#90c5c8" stroke="#90c5c8" stroke-width="1.51"/><path d="M2222,-118L1798,-86L2032,445Z" fill="#abdcce" stroke="#abdcce" stroke-width="1.51"/><path d="M215,366L46,457L215,841Z" fill="#d3eecc" stroke="#d3eecc" stroke-width="1.51"/><path d="M-202,910L-613,731L-488,1364Z" fill="#d1edd0" stroke="#d1edd0" stroke-width="1.51"/><path d="M-488,1364L-607,1642L-131,1689Z" fill="#c0e6d0" stroke="#c0e6d0" stroke-width="1.51"/><path d="M-549,2191L-602,2479L-46,2630Z" fill="#aad8db" stroke="#aad8db" stroke-width="1.51"/><path d="M-607,1642L-602,2479L-549,2191Z" fill="#b5dfd9" stroke="#b5dfd9" stroke-width="1.51"/><path d="M2898,3795L2992,3172L2475,3427Z" fill="#3694c3" stroke="#3694c3" stroke-width="1.51"/><path d="M2992,3172L3583,3018L3082,2648Z" fill="#3696c3" stroke="#3696c3" stroke-width="1.51"/><path d="M-153,3076L-121,3440L212,3524Z" fill="#91bbcb" stroke="#91bbcb" stroke-width="1.51"/><path d="M896,4314L1180,4275L899,3818Z" fill="#749cae" stroke="#749cae" stroke-width="1.51"/><path d="M-549,3427L-121,3440L-153,3076Z" fill="#96bdd0" stroke="#96bdd0" stroke-width="1.51"/><path d="M1724,4405L2219,4072L1570,3921Z" fill="#5593b1" stroke="#5593b1" stroke-width="1.51"/><path d="M1345,19L925,-124L1278,444Z" fill="#c3e8c5" stroke="#c3e8c5" stroke-width="1.51"/><path d="M215,366L-194,-87L46,457Z" fill="#daf1d3" stroke="#daf1d3" stroke-width="1.51"/><path d="M1129,-409L925,-124L1345,19Z" fill="#c9eaca" stroke="#c9eaca" stroke-width="1.51"/><path d="M-602,2479L-506,3002L-46,2630Z" fill="#a3d1da" stroke="#a3d1da" stroke-width="1.51"/><path d="M3962,1171L3371,815L3442,1190Z" fill="#78acb9" stroke="#78acb9" stroke-width="1.51"/><path d="M3442,1190L3371,815L3055,914Z" fill="#7eb5be" stroke="#7eb5be" stroke-width="1.51"/><path d="M2460,3896L2898,3795L2475,3427Z" fill="#3792c2" stroke="#3792c2" stroke-width="1.51"/><path d="M3046,4248L2898,3795L2460,3896Z" fill="#2e85bb" stroke="#2e85bb" stroke-width="1.51"/><path d="M1681,-472L1129,-409L1345,19Z" fill="#c4e8cc" stroke="#c4e8cc" stroke-width="1.51"/><path d="M2610,308L2222,-118L2032,445Z" fill="#a3d6cf" stroke="#a3d6cf" stroke-width="1.51"/><path d="M2543,-13L2222,-118L2610,308Z" fill="#a1d4d3" stroke="#a1d4d3" stroke-width="1.51"/><path d="M1304,3943L1180,4275L1570,3921Z" fill="#6a9baf" stroke="#6a9baf" stroke-width="1.51"/><path d="M899,3818L1180,4275L1304,3943Z" fill="#729fb1" stroke="#729fb1" stroke-width="1.51"/><path d="M392,4021L699,3438L212,3524Z" fill="#87afc0" stroke="#87afc0" stroke-width="1.51"/><path d="M-24,3855L392,4021L212,3524Z" fill="#89adc2" stroke="#89adc2" stroke-width="1.51"/><path d="M2909,-37L2543,-13L2610,308Z" fill="#9cced3" stroke="#9cced3" stroke-width="1.51"/><path d="M3378,2482L3973,2221L3352,2153Z" fill="#489cc1" stroke="#489cc1" stroke-width="1.51"/><path d="M3171,3369L3583,3018L2992,3172Z" fill="#2e8ebf" stroke="#2e8ebf" stroke-width="1.51"/><path d="M3349,3548L3583,3018L3171,3369Z" fill="#2887bc" stroke="#2887bc" stroke-width="1.51"/><path d="M3371,815L3054,286L3055,914Z" fill="#89bcc3" stroke="#89bcc3" stroke-width="1.51"/><path d="M925,-124L451,-94L689,492Z" fill="#d1edcb" stroke="#d1edcb" stroke-width="1.51"/><path d="M392,4021L896,4314L899,3818Z" fill="#7ca1b4" stroke="#7ca1b4" stroke-width="1.51"/><path d="M3583,3018L3792,2634L3378,2482Z" fill="#3693c2" stroke="#3693c2" stroke-width="1.51"/><path d="M3556,1704L3962,1171L3442,1190Z" fill="#6ea7b7" stroke="#6ea7b7" stroke-width="1.51"/><path d="M392,4021L489,4519L896,4314Z" fill="#7d9bae" stroke="#7d9bae" stroke-width="1.51"/><path d="M-121,3440L-24,3855L212,3524Z" fill="#8eb3c7" stroke="#8eb3c7" stroke-width="1.51"/><path d="M-508,3864L-24,3855L-121,3440Z" fill="#90b1c9" stroke="#90b1c9" stroke-width="1.51"/><path d="M2219,4072L2637,4443L2460,3896Z" fill="#3c89b8" stroke="#3c89b8" stroke-width="1.51"/><path d="M1180,4275L1724,4405L1570,3921Z" fill="#6395ac" stroke="#6395ac" stroke-width="1.51"/><path d="M489,4519L1724,4405L1180,4275Z" fill="#6d92a4" stroke="#6d92a4" stroke-width="1.51"/><path d="M2898,3795L3349,3548L3171,3369Z" fill="#2987bc" stroke="#2987bc" stroke-width="1.51"/><path d="M3583,3018L3863,3116L3792,2634Z" fill="#2d88bd" stroke="#2d88bd" stroke-width="1.51"/><path d="M925,-124L678,-460L451,-94Z" fill="#d6efd0" stroke="#d6efd0" stroke-width="1.51"/><path d="M1681,-472L1345,19L1798,-86Z" fill="#bbe4cd" stroke="#bbe4cd" stroke-width="1.51"/><path d="M3973,2221L3556,1704L3352,2153Z" fill="#529fbd" stroke="#529fbd" stroke-width="1.51"/><path d="M-502,417L-202,910L46,457Z" fill="#d8f0d2" stroke="#d8f0d2" stroke-width="1.51"/><path d="M-502,417L-613,731L-202,910Z" fill="#d9f1d4" stroke="#d9f1d4" stroke-width="1.51"/><path d="M-488,1364L-613,731L-607,1642Z" fill="#ccebcf" stroke="#ccebcf" stroke-width="1.51"/><path d="M-607,1642L-670,4444L-602,2479Z" fill="#a4cedc" stroke="#a4cedc" stroke-width="1.51"/><path d="M1724,4405L2103,4427L2219,4072Z" fill="#4d8bad" stroke="#4d8bad" stroke-width="1.51"/><path d="M2898,3795L3447,3925L3349,3548Z" fill="#237fb8" stroke="#237fb8" stroke-width="1.51"/><path d="M-602,2479L-549,3427L-506,3002Z" fill="#a1cad8" stroke="#a1cad8" stroke-width="1.51"/><path d="M-506,3002L-549,3427L-153,3076Z" fill="#9bc3d3" stroke="#9bc3d3" stroke-width="1.51"/><path d="M3792,2634L3973,2221L3378,2482Z" fill="#3f95c1" stroke="#3f95c1" stroke-width="1.51"/><path d="M2222,-118L2079,-399L1798,-86Z" fill="#b0ded3" stroke="#b0ded3" stroke-width="1.51"/><path d="M2592,-434L2079,-399L2222,-118Z" fill="#abdad8" stroke="#abdad8" stroke-width="1.51"/><path d="M2592,-434L2222,-118L2543,-13Z" fill="#a5d6d7" stroke="#a5d6d7" stroke-width="1.51"/><path d="M3054,286L2909,-37L2610,308Z" fill="#97c9cf" stroke="#97c9cf" stroke-width="1.51"/><path d="M3358,-221L2909,-37L3054,286Z" fill="#95c2ce" stroke="#95c2ce" stroke-width="1.51"/><path d="M3469,307L3054,286L3371,815Z" fill="#8bb9c4" stroke="#8bb9c4" stroke-width="1.51"/><path d="M2079,-399L1681,-472L1798,-86Z" fill="#b6e2d2" stroke="#b6e2d2" stroke-width="1.51"/><path d="M-194,-87L-502,417L46,457Z" fill="#ddf2d7" stroke="#ddf2d7" stroke-width="1.51"/><path d="M4397,2446L4424,2112L3973,2221Z" fill="#4388b1" stroke="#4388b1" stroke-width="1.51"/><path d="M3802,3453L3863,3116L3583,3018Z" fill="#2481b9" stroke="#2481b9" stroke-width="1.51"/><path d="M3947,1805L3962,1171L3556,1704Z" fill="#64a0b6" stroke="#64a0b6" stroke-width="1.51"/><path d="M4049,900L3962,1171L4333,845Z" fill="#759daf" stroke="#759daf" stroke-width="1.51"/><path d="M451,-94L-194,-87L215,366Z" fill="#daf1d4" stroke="#daf1d4" stroke-width="1.51"/><path d="M1129,-409L678,-460L925,-124Z" fill="#d1edcf" stroke="#d1edcf" stroke-width="1.51"/><path d="M381,-587L678,-460L1129,-409Z" fill="#d9f0d4" stroke="#d9f0d4" stroke-width="1.51"/><path d="M3931,387L3469,307L3371,815Z" fill="#87b1bf" stroke="#87b1bf" stroke-width="1.51"/><path d="M2103,4427L2637,4443L2219,4072Z" fill="#4185b0" stroke="#4185b0" stroke-width="1.51"/><path d="M3349,3548L3802,3453L3583,3018Z" fill="#2481b9" stroke="#2481b9" stroke-width="1.51"/><path d="M896,4314L489,4519L1180,4275Z" fill="#7595a8" stroke="#7595a8" stroke-width="1.51"/><path d="M1724,4405L489,4519L2103,4427Z" fill="#628da3" stroke="#628da3" stroke-width="1.51"/><path d="M2103,4427L489,4519L2637,4443Z" fill="#5789a6" stroke="#5789a6" stroke-width="1.51"/><path d="M-149,4416L489,4519L392,4021Z" fill="#819cb2" stroke="#819cb2" stroke-width="1.51"/><path d="M-149,4416L392,4021L-24,3855Z" fill="#87a4bc" stroke="#87a4bc" stroke-width="1.51"/><path d="M2937,-672L2592,-434L2909,-37Z" fill="#a1ced8" stroke="#a1ced8" stroke-width="1.51"/><path d="M2909,-37L2592,-434L2543,-13Z" fill="#a0d0d7" stroke="#a0d0d7" stroke-width="1.51"/><path d="M2079,-399L2937,-672L1681,-472Z" fill="#b0dcda" stroke="#b0dcda" stroke-width="1.51"/><path d="M381,-587L-194,-87L451,-94Z" fill="#dff2d8" stroke="#dff2d8" stroke-width="1.51"/><path d="M2637,4443L3046,4248L2460,3896Z" fill="#3081b5" stroke="#3081b5" stroke-width="1.51"/><path d="M3447,3925L3802,3453L3349,3548Z" fill="#1f7ab6" stroke="#1f7ab6" stroke-width="1.51"/><path d="M-549,3427L-508,3864L-121,3440Z" fill="#95b7ce" stroke="#95b7ce" stroke-width="1.51"/><path d="M3046,4248L3447,3925L2898,3795Z" fill="#237cb5" stroke="#237cb5" stroke-width="1.51"/><path d="M3962,1171L4049,900L3371,815Z" fill="#79a7b7" stroke="#79a7b7" stroke-width="1.51"/><path d="M4491,1749L3962,1171L3947,1805Z" fill="#6196af" stroke="#6196af" stroke-width="1.51"/><path d="M678,-460L381,-587L451,-94Z" fill="#dcf2d5" stroke="#dcf2d5" stroke-width="1.51"/><path d="M1681,-472L381,-587L1129,-409Z" fill="#d0edd0" stroke="#d0edd0" stroke-width="1.51"/><path d="M2937,-672L381,-587L1681,-472Z" fill="#c0e6d4" stroke="#c0e6d4" stroke-width="1.51"/><path d="M-194,-87L-451,-62L-502,417Z" fill="#e3f4dc" stroke="#e3f4dc" stroke-width="1.51"/><path d="M-502,417L-451,-62L-613,731Z" fill="#e1f4da" stroke="#e1f4da" stroke-width="1.51"/><path d="M-507,-579L-451,-62L-194,-87Z" fill="#e8f6e2" stroke="#e8f6e2" stroke-width="1.51"/><path d="M-508,3864L-149,4416L-24,3855Z" fill="#8ca7c3" stroke="#8ca7c3" stroke-width="1.51"/><path d="M3469,307L3358,-221L3054,286Z" fill="#90bbc9" stroke="#90bbc9" stroke-width="1.51"/><path d="M4033,-7L3358,-221L3469,307Z" fill="#8db3c6" stroke="#8db3c6" stroke-width="1.51"/><path d="M3973,2221L4424,2112L3947,1805Z" fill="#4d90b4" stroke="#4d90b4" stroke-width="1.51"/><path d="M4397,2446L3973,2221L3792,2634Z" fill="#3d8cba" stroke="#3d8cba" stroke-width="1.51"/><path d="M4397,2446L3792,2634L4521,2961Z" fill="#3181b4" stroke="#3181b4" stroke-width="1.51"/><path d="M4521,2961L3792,2634L3863,3116Z" fill="#2b80b6" stroke="#2b80b6" stroke-width="1.51"/><path d="M4333,845L3931,387L4049,900Z" fill="#7ca0b3" stroke="#7ca0b3" stroke-width="1.51"/><path d="M4049,900L3931,387L3371,815Z" fill="#81aaba" stroke="#81aaba" stroke-width="1.51"/><path d="M4424,2112L4491,1749L3947,1805Z" fill="#518dad" stroke="#518dad" stroke-width="1.51"/><path d="M4521,2961L4491,1749L4424,2112Z" fill="#4281aa" stroke="#4281aa" stroke-width="1.51"/><path d="M3365,-476L2937,-672L3358,-221Z" fill="#9ac1d3" stroke="#9ac1d3" stroke-width="1.51"/><path d="M3358,-221L2937,-672L2909,-37Z" fill="#9bc5d3" stroke="#9bc5d3" stroke-width="1.51"/><path d="M2592,-434L2937,-672L2079,-399Z" fill="#a9d7dd" stroke="#a9d7dd" stroke-width="1.51"/><path d="M4505,1247L4333,845L3962,1171Z" fill="#7097a9" stroke="#7097a9" stroke-width="1.51"/><path d="M2937,-672L-118,-613L381,-587Z" fill="#d2eed2" stroke="#d2eed2" stroke-width="1.51"/><path d="M381,-587L-118,-613L-194,-87Z" fill="#e5f5de" stroke="#e5f5de" stroke-width="1.51"/><path d="M3802,3453L4249,3568L3863,3116Z" fill="#1b76b2" stroke="#1b76b2" stroke-width="1.51"/><path d="M3447,3925L3990,3859L3802,3453Z" fill="#1672b1" stroke="#1672b1" stroke-width="1.51"/><path d="M4008,4423L3990,3859L3447,3925Z" fill="#0e67a9" stroke="#0e67a9" stroke-width="1.51"/><path d="M3462,4511L3447,3925L3046,4248Z" fill="#1d6faa" stroke="#1d6faa" stroke-width="1.51"/><path d="M4491,1749L4505,1247L3962,1171Z" fill="#6592a7" stroke="#6592a7" stroke-width="1.51"/><path d="M4033,-7L3469,307L3931,387Z" fill="#88acc1" stroke="#88acc1" stroke-width="1.51"/><path d="M4052,-529L3365,-476L3358,-221Z" fill="#95b6ce" stroke="#95b6ce" stroke-width="1.51"/><path d="M3990,3859L4249,3568L3802,3453Z" fill="#156dad" stroke="#156dad" stroke-width="1.51"/><path d="M4397,2446L4521,2961L4424,2112Z" fill="#377dae" stroke="#377dae" stroke-width="1.51"/><path d="M4249,3568L4521,2961L3863,3116Z" fill="#2072ac" stroke="#2072ac" stroke-width="1.51"/><path d="M4491,1749L4521,2961L4505,1247Z" fill="#4c85a7" stroke="#4c85a7" stroke-width="1.51"/><path d="M489,4519L3462,4511L2637,4443Z" fill="#4582a9" stroke="#4582a9" stroke-width="1.51"/><path d="M2637,4443L3462,4511L3046,4248Z" fill="#2671a9" stroke="#2671a9" stroke-width="1.51"/><path d="M3990,3859L4357,3789L4249,3568Z" fill="#1165a6" stroke="#1165a6" stroke-width="1.51"/><path d="M-508,3864L-670,4444L-149,4416Z" fill="#8da2bf" stroke="#8da2bf" stroke-width="1.51"/><path d="M-149,4416L-670,4444L489,4519Z" fill="#8598b3" stroke="#8598b3" stroke-width="1.51"/><path d="M-549,3427L-670,4444L-508,3864Z" fill="#94aecc" stroke="#94aecc" stroke-width="1.51"/><path d="M-602,2479L-670,4444L-549,3427Z" fill="#9abcd2" stroke="#9abcd2" stroke-width="1.51"/><path d="M-613,731L-670,4444L-607,1642Z" fill="#b1dcdc" stroke="#b1dcdc" stroke-width="1.51"/><path d="M4398,297L3931,387L4333,845Z" fill="#7f9db1" stroke="#7f9db1" stroke-width="1.51"/><path d="M4398,297L4033,-7L3931,387Z" fill="#85a2ba" stroke="#85a2ba" stroke-width="1.51"/><path d="M-118,-613L-507,-579L-194,-87Z" fill="#e9f6e3" stroke="#e9f6e3" stroke-width="1.51"/><path d="M-451,-62L-507,-579L-613,731Z" fill="#e6f6df" stroke="#e6f6df" stroke-width="1.51"/><path d="M4352,4297L4357,3789L3990,3859Z" fill="#095da0" stroke="#095da0" stroke-width="1.51"/><path d="M4249,3568L4357,3789L4521,2961Z" fill="#1a67a4" stroke="#1a67a4" stroke-width="1.51"/><path d="M4505,1247L4398,297L4333,845Z" fill="#7694a8" stroke="#7694a8" stroke-width="1.51"/><path d="M3462,4511L4008,4423L3447,3925Z" fill="#1565a4" stroke="#1565a4" stroke-width="1.51"/><path d="M4398,297L4452,-5L4033,-7Z" fill="#849db6" stroke="#849db6" stroke-width="1.51"/><path d="M4033,-7L4052,-529L3358,-221Z" fill="#8fafc8" stroke="#8fafc8" stroke-width="1.51"/><path d="M3365,-476L4052,-529L2937,-672Z" fill="#99bbd2" stroke="#99bbd2" stroke-width="1.51"/><path d="M4505,1247L4452,-5L4398,297Z" fill="#7c96aa" stroke="#7c96aa" stroke-width="1.51"/><path d="M4415,-461L4052,-529L4033,-7Z" fill="#8ca4c0" stroke="#8ca4c0" stroke-width="1.51"/><path d="M4008,4423L4352,4297L3990,3859Z" fill="#0a5a9d" stroke="#0a5a9d" stroke-width="1.51"/><path d="M4357,3789L4352,4297L4521,2961Z" fill="#1360a0" stroke="#1360a0" stroke-width="1.51"/><path d="M4452,-5L4415,-461L4033,-7Z" fill="#879fb9" stroke="#879fb9" stroke-width="1.51"/></svg>